<?xml version="1.0" encoding="UTF-8" standalone="no"?>
<!-- Created with Inkscape (http://www.inkscape.org/) -->

<svg
   xmlns:dc="http://purl.org/dc/elements/1.1/"
   xmlns:cc="http://creativecommons.org/ns#"
   xmlns:rdf="http://www.w3.org/1999/02/22-rdf-syntax-ns#"
   xmlns:svg="http://www.w3.org/2000/svg"
   xmlns="http://www.w3.org/2000/svg"
   xmlns:sodipodi="http://sodipodi.sourceforge.net/DTD/sodipodi-0.dtd"
   xmlns:inkscape="http://www.inkscape.org/namespaces/inkscape"
   width="1360.4255"
   height="133.74158"
   viewBox="0 0 359.94536 35.385796"
   version="1.1"
   id="svg4088"
   sodipodi:docname="belwood-logo.svg"
   inkscape:version="">
  <defs
     id="defs4082" />
  <sodipodi:namedview
     id="base"
     pagecolor="#ffffff"
     bordercolor="#666666"
     borderopacity="1.0"
     inkscape:pageopacity="0.0"
     inkscape:pageshadow="2"
     inkscape:zoom="0.98982456"
     inkscape:cx="709.55717"
     inkscape:cy="-32.705128"
     inkscape:document-units="mm"
     inkscape:current-layer="layer1"
     showgrid="false"
     units="px"
     inkscape:pagecheckerboard="true"
     fit-margin-top="0"
     fit-margin-left="0"
     fit-margin-right="0"
     fit-margin-bottom="0"
     inkscape:window-width="2560"
     inkscape:window-height="1057"
     inkscape:window-x="1366"
     inkscape:window-y="23"
     inkscape:window-maximized="1" />
  <metadata
     id="metadata4085">
    <rdf:RDF>
      <cc:Work
         rdf:about="">
        <dc:format>image/svg+xml</dc:format>
        <dc:type
           rdf:resource="http://purl.org/dc/dcmitype/StillImage" />
        <dc:title></dc:title>
      </cc:Work>
    </rdf:RDF>
  </metadata>
  <g
     inkscape:label="Layer 1"
     inkscape:groupmode="layer"
     id="layer1"
     transform="translate(-24.769981,-208.38033)">
    <path
       style="display:inline;fill:#e3dbdb;stroke-width:0.62875921"
       d="m 25.220609,240.24594 c -0.39413,-0.47486 -0.562139,-1.26592 -0.373365,-1.7579 0.505578,-1.31749 11.724568,-8.69787 13.220423,-8.69707 1.226423,7.3e-4 5.027599,3.54215 8.7081,8.11297 1.333341,1.65586 1.535841,2.25722 0.896609,2.66254 -0.454139,0.28788 -5.530341,0.52798 -11.280448,0.53329 -8.106299,0.004 -10.615688,-0.18432 -11.171319,-0.85383 z m 26.419199,-1.72192 c -1.366347,-1.42195 -3.832384,-4.54063 -5.480084,-6.93038 l -2.995817,-4.34502 1.273145,-1.71501 c 1.832476,-2.46857 6.74418,-5.379 8.263758,-4.89666 1.465992,0.46529 1.886384,1.44732 4.826862,11.27593 2.481502,8.2946 2.353694,9.19652 -1.303256,9.19652 -1.637956,0 -2.647245,-0.56918 -4.584608,-2.58538 z m 21.971983,1.99639 c -0.995339,-0.62983 -1.07532,-0.24896 2.623253,-12.49516 2.154623,-7.13425 3.190543,-8.3496 6.018672,-7.06102 3.160146,1.43992 6.405453,4.48484 6.405453,6.01006 0,1.82141 -7.907158,12.55425 -9.927079,13.47454 -1.769173,0.80612 -3.912277,0.83608 -5.120299,0.0714 z m 10.943344,-0.0674 c -0.906888,-1.46735 7.226002,-10.66129 9.430877,-10.66129 2.240404,0 13.535938,7.78587 13.535938,9.33015 0,0.26322 -0.33954,0.81804 -0.75451,1.23304 -0.98017,0.98015 -21.610862,1.07127 -22.212305,0.0981 z m -21.261586,-0.90617 c -0.982311,-0.98232 -4.805469,-16.03208 -4.932743,-19.41767 -0.103842,-2.75846 1.602452,-5.73811 4.357605,-7.61029 3.418365,-2.32283 4.89501,-2.06624 8.425307,1.46406 2.62292,2.62287 3.050994,3.39947 3.032828,5.50162 -0.03069,3.54963 -4.077686,19.78939 -5.091681,20.43178 -1.369406,0.86751 -4.77136,0.65044 -5.791316,-0.3695 z"
       id="path13562"
       inkscape:connector-curvature="0" />
    <text
       xml:space="preserve"
       style="font-style:normal;font-weight:normal;font-size:10.58333302px;line-height:1.25;font-family:sans-serif;letter-spacing:0px;word-spacing:0px;fill:#000000;fill-opacity:1;stroke:none;stroke-width:0.26458332"
       x="43.094723"
       y="253.52724"
       id="text4651"><tspan
         sodipodi:role="line"
         id="tspan4649"
         x="43.094723"
         y="262.89099"
         style="stroke-width:0.26458332" /></text>
    <text
       xml:space="preserve"
       style="font-style:normal;font-weight:normal;font-size:32.73431778px;line-height:1.25;font-family:sans-serif;letter-spacing:0px;word-spacing:0px;fill:#e3dbdb;fill-opacity:1;stroke:none;stroke-width:0.818358"
       x="137.63034"
       y="236.63005"
       id="text871"><tspan
         sodipodi:role="line"
         id="tspan869"
         x="137.63034"
         y="236.63005"
         style="font-style:normal;font-variant:normal;font-weight:normal;font-stretch:normal;font-size:32.73431778px;font-family:Aubrey;-inkscape-font-specification:'Aubrey, Normal';font-variant-ligatures:normal;font-variant-caps:normal;font-variant-numeric:normal;font-feature-settings:normal;text-align:start;writing-mode:lr-tb;text-anchor:start;fill:#e3dbdb;stroke-width:0.818358"
         dx="0 0 0 0 0 0 0 4.3839035">Belwood Bakery</tspan></text>
  </g>
</svg>
